<?xml version="1.0" encoding="UTF-8" standalone="no"?>
<!DOCTYPE svg PUBLIC "-//W3C//DTD SVG 1.1//EN"
 "http://www.w3.org/Graphics/SVG/1.1/DTD/svg11.dtd">
<!-- Generated by graphviz version 2.40.1 (20161225.0304)
 -->
<!-- Title: %3 Pages: 1 -->
<svg width="495pt" height="116pt"
 viewBox="0.00 0.00 494.60 116.00" xmlns="http://www.w3.org/2000/svg" xmlns:xlink="http://www.w3.org/1999/xlink">
<g id="graph0" class="graph" transform="scale(1 1) rotate(0) translate(4 112)">
<title>%3</title>
<polygon fill="#ffffff" stroke="transparent" points="-4,4 -4,-112 490.6034,-112 490.6034,4 -4,4"/>
<!-- actuator x -->
<g id="node1" class="node">
<title>actuator x</title>
<polygon fill="#d3d3d3" stroke="#000000" points="51.6011,-108 .1325,-108 .1325,-72 51.6011,-72 51.6011,-108"/>
<text text-anchor="middle" x="25.8668" y="-87.3" font-family="Times,serif" font-size="9.00" fill="#000000">actuator x</text>
</g>
<!-- actuator y -->
<g id="node2" class="node">
<title>actuator y</title>
<polygon fill="#d3d3d3" stroke="#000000" points="121.6011,-108 70.1325,-108 70.1325,-72 121.6011,-72 121.6011,-108"/>
<text text-anchor="middle" x="95.8668" y="-87.3" font-family="Times,serif" font-size="9.00" fill="#000000">actuator y</text>
</g>
<!-- actuator x&#45;&gt;actuator y -->
<!-- chip x (relative) -->
<g id="node3" class="node">
<title>chip x (relative)</title>
<polygon fill="#d3d3d3" stroke="#000000" points="213.8414,-108 139.8922,-108 139.8922,-72 213.8414,-72 213.8414,-108"/>
<text text-anchor="middle" x="176.8668" y="-87.3" font-family="Times,serif" font-size="9.00" fill="#000000">chip x (relative)</text>
</g>
<!-- actuator y&#45;&gt;chip x (relative) -->
<!-- chip y (relative) -->
<g id="node4" class="node">
<title>chip y (relative)</title>
<polygon fill="#d3d3d3" stroke="#000000" points="304.8414,-108 230.8922,-108 230.8922,-72 304.8414,-72 304.8414,-108"/>
<text text-anchor="middle" x="267.8668" y="-87.3" font-family="Times,serif" font-size="9.00" fill="#000000">chip y (relative)</text>
</g>
<!-- chip x (relative)&#45;&gt;chip y (relative) -->
<!-- dx -->
<g id="node7" class="node">
<title>dx</title>
<ellipse fill="#add8e6" stroke="#000000" cx="267.8668" cy="-18" rx="18" ry="18"/>
<text text-anchor="middle" x="267.8668" y="-15.3" font-family="Times,serif" font-size="9.00" fill="#000000">dx</text>
</g>
<!-- chip x (relative)&#45;&gt;dx -->
<g id="edge7" class="edge">
<title>chip x (relative)&#45;&gt;dx</title>
<path fill="none" stroke="#00ff00" stroke-width=".7794" d="M199.8299,-71.8314C213.87,-60.7227 231.7403,-46.5836 245.6429,-35.5838"/>
<polygon fill="#00ff00" stroke="#00ff00" stroke-width=".7794" points="248.0462,-38.1453 253.7167,-29.1957 243.7028,-32.6557 248.0462,-38.1453"/>
</g>
<!-- dy -->
<g id="node8" class="node">
<title>dy</title>
<ellipse fill="#add8e6" stroke="#000000" cx="321.8668" cy="-18" rx="18" ry="18"/>
<text text-anchor="middle" x="321.8668" y="-15.3" font-family="Times,serif" font-size="9.00" fill="#000000">dy</text>
</g>
<!-- chip x (relative)&#45;&gt;dy -->
<g id="edge8" class="edge">
<title>chip x (relative)&#45;&gt;dy</title>
<path fill="none" stroke="#ff0000" stroke-width="1.8198" d="M213.7557,-74.9131C237.4041,-64.8068 268.4985,-50.7006 294.8668,-36 296.0016,-35.3673 297.1511,-34.7026 298.3034,-34.0166"/>
<polygon fill="#ff0000" stroke="#ff0000" stroke-width="1.8198" points="300.4104,-36.8255 306.9948,-28.5251 296.6714,-30.9077 300.4104,-36.8255"/>
</g>
<!-- goal x (relative) -->
<g id="node5" class="node">
<title>goal x (relative)</title>
<polygon fill="#d3d3d3" stroke="#000000" points="395.8414,-108 321.8922,-108 321.8922,-72 395.8414,-72 395.8414,-108"/>
<text text-anchor="middle" x="358.8668" y="-87.3" font-family="Times,serif" font-size="9.00" fill="#000000">goal x (relative)</text>
</g>
<!-- chip y (relative)&#45;&gt;goal x (relative) -->
<!-- chip y (relative)&#45;&gt;dx -->
<g id="edge9" class="edge">
<title>chip y (relative)&#45;&gt;dx</title>
<path fill="none" stroke="#00ff00" stroke-width="1.3076" d="M267.8668,-71.8314C267.8668,-64.131 267.8668,-54.9743 267.8668,-46.4166"/>
<polygon fill="#00ff00" stroke="#00ff00" stroke-width="1.3076" points="271.3669,-46.4132 267.8668,-36.4133 264.3669,-46.4133 271.3669,-46.4132"/>
</g>
<!-- chip y (relative)&#45;&gt;dy -->
<g id="edge10" class="edge">
<title>chip y (relative)&#45;&gt;dy</title>
<path fill="none" stroke="#00ff00" stroke-width=".5821" d="M281.4933,-71.8314C288.5496,-62.4229 297.2363,-50.8407 304.7421,-40.8329"/>
<polygon fill="#00ff00" stroke="#00ff00" stroke-width=".5821" points="307.7634,-42.6378 310.9635,-32.5378 302.1634,-38.4378 307.7634,-42.6378"/>
</g>
<!-- goal y (relative) -->
<g id="node6" class="node">
<title>goal y (relative)</title>
<polygon fill="#d3d3d3" stroke="#000000" points="486.8414,-108 412.8922,-108 412.8922,-72 486.8414,-72 486.8414,-108"/>
<text text-anchor="middle" x="449.8668" y="-87.3" font-family="Times,serif" font-size="9.00" fill="#000000">goal y (relative)</text>
</g>
<!-- goal x (relative)&#45;&gt;goal y (relative) -->
<!-- goal x (relative)&#45;&gt;dy -->
<g id="edge11" class="edge">
<title>goal x (relative)&#45;&gt;dy</title>
<path fill="none" stroke="#00ff00" stroke-width=".2395" d="M349.5301,-71.8314C345.0987,-63.2079 339.7287,-52.7583 334.9035,-43.3687"/>
<polygon fill="#00ff00" stroke="#00ff00" stroke-width=".2395" points="337.9985,-41.7338 330.3148,-34.4393 331.7725,-44.9334 337.9985,-41.7338"/>
</g>
<!-- goal y (relative)&#45;&gt;dx -->
<g id="edge12" class="edge">
<title>goal y (relative)&#45;&gt;dx</title>
<path fill="none" stroke="#ff0000" stroke-width=".1787" d="M413.1037,-75.0716C410.3243,-74.0114 407.5558,-72.9767 404.8668,-72 356.5168,-54.4387 341.1381,-58.4741 294.8668,-36 293.6981,-35.4324 292.5208,-34.8209 291.346,-34.1781"/>
<polygon fill="#ff0000" stroke="#ff0000" stroke-width=".1787" points="292.9351,-31.0482 282.5718,-28.8455 289.2995,-37.0301 292.9351,-31.0482"/>
</g>
<!-- goal y (relative)&#45;&gt;dy -->
<g id="edge13" class="edge">
<title>goal y (relative)&#45;&gt;dy</title>
<path fill="none" stroke="#00ff00" stroke-width=".2176" d="M417.567,-71.8314C395.5734,-59.4599 366.8976,-43.3299 346.6904,-31.9633"/>
<polygon fill="#00ff00" stroke="#00ff00" stroke-width=".2176" points="348.2187,-28.8073 337.787,-26.9551 344.7869,-34.9083 348.2187,-28.8073"/>
</g>
<!-- dx&#45;&gt;dy -->
</g>
</svg>
