<?xml version="1.0" encoding="UTF-8" standalone="no"?>
<!DOCTYPE svg PUBLIC "-//W3C//DTD SVG 1.1//EN"
 "http://www.w3.org/Graphics/SVG/1.1/DTD/svg11.dtd">
<!-- Generated by graphviz version 12.2.1 (0)
 -->
<!-- Pages: 1 -->
<svg width="584pt" height="404pt"
 viewBox="0.00 0.00 584.38 404.00" xmlns="http://www.w3.org/2000/svg" xmlns:xlink="http://www.w3.org/1999/xlink">
<g id="graph0" class="graph" transform="scale(1 1) rotate(0) translate(4 400)">
<polygon fill="white" stroke="none" points="-4,4 -4,-400 580.38,-400 580.38,4 -4,4"/>
<!-- actuator x -->
<g id="node1" class="node">
<title>actuator x</title>
<polygon fill="lightgray" stroke="black" points="63.25,-396 0,-396 0,-360 63.25,-360 63.25,-396"/>
<text text-anchor="middle" x="31.62" y="-375.07" font-family="Times,serif" font-size="9.00">actuator x</text>
</g>
<!-- actuator y -->
<g id="node2" class="node">
<title>actuator y</title>
<polygon fill="lightgray" stroke="black" points="144.25,-396 81,-396 81,-360 144.25,-360 144.25,-396"/>
<text text-anchor="middle" x="112.62" y="-375.07" font-family="Times,serif" font-size="9.00">actuator y</text>
</g>
<!-- actuator x&#45;&gt;actuator y -->
<!-- chip x (relative) -->
<g id="node3" class="node">
<title>chip x (relative)</title>
<polygon fill="lightgray" stroke="black" points="252.75,-396 162.5,-396 162.5,-360 252.75,-360 252.75,-396"/>
<text text-anchor="middle" x="207.62" y="-375.07" font-family="Times,serif" font-size="9.00">chip x (relative)</text>
</g>
<!-- actuator y&#45;&gt;chip x (relative) -->
<!-- chip y (relative) -->
<g id="node4" class="node">
<title>chip y (relative)</title>
<polygon fill="lightgray" stroke="black" points="360.75,-396 270.5,-396 270.5,-360 360.75,-360 360.75,-396"/>
<text text-anchor="middle" x="315.62" y="-375.07" font-family="Times,serif" font-size="9.00">chip y (relative)</text>
</g>
<!-- chip x (relative)&#45;&gt;chip y (relative) -->
<!-- dx -->
<g id="node7" class="node">
<title>dx</title>
<ellipse fill="lightblue" stroke="black" cx="316.62" cy="-18" rx="18" ry="18"/>
<text text-anchor="middle" x="316.62" y="-15.07" font-family="Times,serif" font-size="9.00">dx</text>
</g>
<!-- chip x (relative)&#45;&gt;dx -->
<g id="edge7" class="edge">
<title>chip x (relative)&#45;&gt;dx</title>
<path fill="none" stroke="green" stroke-width="0.74" d="M210.26,-359.56C214.05,-332.82 220.62,-280.06 220.62,-235 220.62,-235 220.62,-235 220.62,-161 220.62,-119.66 224.11,-105.99 247.62,-72 258.97,-55.59 276.98,-42.01 291.75,-32.7"/>
<polygon fill="green" stroke="green" stroke-width="0.74" points="293.16,-35.94 299.93,-27.79 289.55,-29.94 293.16,-35.94"/>
</g>
<!-- dy -->
<g id="node8" class="node">
<title>dy</title>
<ellipse fill="lightblue" stroke="black" cx="381.62" cy="-18" rx="18" ry="18"/>
<text text-anchor="middle" x="381.62" y="-15.07" font-family="Times,serif" font-size="9.00">dy</text>
</g>
<!-- chip x (relative)&#45;&gt;dy -->
<g id="edge8" class="edge">
<title>chip x (relative)&#45;&gt;dy</title>
<path fill="none" stroke="green" stroke-width="1.56" d="M218.81,-359.87C234.63,-333.96 261.62,-282.74 261.62,-235 261.62,-235 261.62,-235 261.62,-161 261.62,-103.08 320.58,-56.59 355.85,-33.97"/>
<polygon fill="green" stroke="green" stroke-width="1.56" points="357.27,-37.2 363.93,-28.96 353.58,-31.25 357.27,-37.2"/>
</g>
<!-- goal x (relative) -->
<g id="node5" class="node">
<title>goal x (relative)</title>
<polygon fill="lightgray" stroke="black" points="468.38,-396 378.88,-396 378.88,-360 468.38,-360 468.38,-396"/>
<text text-anchor="middle" x="423.62" y="-375.07" font-family="Times,serif" font-size="9.00">goal x (relative)</text>
</g>
<!-- chip y (relative)&#45;&gt;goal x (relative) -->
<!-- chip y (relative)&#45;&gt;dx -->
<g id="edge9" class="edge">
<title>chip y (relative)&#45;&gt;dx</title>
<path fill="none" stroke="red" stroke-width="2.37" d="M313.6,-359.54C310.68,-332.77 305.62,-279.98 305.62,-235 305.62,-235 305.62,-235 305.62,-161 305.62,-122.47 309.7,-78.23 312.89,-49.51"/>
<polygon fill="red" stroke="red" stroke-width="2.37" points="316.37,-49.92 314.04,-39.58 309.41,-49.11 316.37,-49.92"/>
</g>
<!-- chip y (relative)&#45;&gt;dy -->
<g id="edge10" class="edge">
<title>chip y (relative)&#45;&gt;dy</title>
<path fill="none" stroke="green" stroke-width="0.77" d="M318.81,-359.73C329.39,-302.31 363.48,-117.42 376.5,-46.79"/>
<polygon fill="green" stroke="green" stroke-width="0.77" points="379.89,-47.71 378.26,-37.24 373.01,-46.44 379.89,-47.71"/>
</g>
<!-- goal y (relative) -->
<g id="node6" class="node">
<title>goal y (relative)</title>
<polygon fill="lightgray" stroke="black" points="576.38,-396 486.88,-396 486.88,-360 576.38,-360 576.38,-396"/>
<text text-anchor="middle" x="531.62" y="-375.07" font-family="Times,serif" font-size="9.00">goal y (relative)</text>
</g>
<!-- goal x (relative)&#45;&gt;goal y (relative) -->
<!-- goal x (relative)&#45;&gt;dx -->
<g id="edge12" class="edge">
<title>goal x (relative)&#45;&gt;dx</title>
<path fill="none" stroke="green" stroke-width="0.24" d="M418.46,-359.73C401.19,-301.94 345.33,-115.03 324.53,-45.44"/>
<polygon fill="green" stroke="green" stroke-width="0.24" points="327.93,-44.61 321.72,-36.03 321.23,-46.62 327.93,-44.61"/>
</g>
<!-- 497 -->
<g id="node10" class="node">
<title>497</title>
<ellipse fill="white" stroke="black" cx="465.62" cy="-162" rx="18" ry="18"/>
</g>
<!-- goal x (relative)&#45;&gt;497 -->
<g id="edge15" class="edge">
<title>goal x (relative)&#45;&gt;497</title>
<path fill="none" stroke="green" stroke-width="0.14" d="M423.13,-359.69C422.73,-329.76 423.94,-266.69 438.62,-216 441.57,-205.84 446.48,-195.33 451.31,-186.37"/>
<polygon fill="green" stroke="green" stroke-width="0.14" points="454.24,-188.29 456.12,-177.87 448.15,-184.84 454.24,-188.29"/>
</g>
<!-- 5880 -->
<g id="node12" class="node">
<title>5880</title>
<ellipse fill="white" stroke="black" cx="465.62" cy="-306" rx="18" ry="18"/>
</g>
<!-- goal x (relative)&#45;&gt;5880 -->
<g id="edge18" class="edge">
<title>goal x (relative)&#45;&gt;5880</title>
<path fill="none" stroke="green" stroke-width="0.26" d="M434.01,-359.7C439.31,-350.86 445.84,-339.98 451.58,-330.41"/>
<polygon fill="green" stroke="green" stroke-width="0.26" points="454.44,-332.45 456.58,-322.08 448.43,-328.85 454.44,-332.45"/>
</g>
<!-- goal y (relative)&#45;&gt;dy -->
<g id="edge11" class="edge">
<title>goal y (relative)&#45;&gt;dy</title>
<path fill="none" stroke="green" stroke-width="0.18" d="M527.58,-359.62C521.73,-332.97 511.62,-280.31 511.62,-235 511.62,-235 511.62,-235 511.62,-161 511.62,-99.38 444.19,-52.86 406.46,-31.66"/>
<polygon fill="green" stroke="green" stroke-width="0.18" points="408.26,-28.65 397.8,-26.95 404.92,-34.8 408.26,-28.65"/>
</g>
<!-- dx&#45;&gt;dy -->
<!-- 5386 -->
<g id="node9" class="node">
<title>5386</title>
<ellipse fill="white" stroke="black" cx="557.62" cy="-90" rx="18" ry="18"/>
</g>
<!-- 5386&#45;&gt;dy -->
<g id="edge13" class="edge">
<title>5386&#45;&gt;dy</title>
<path fill="none" stroke="red" stroke-width="0.5" d="M542.21,-80.27C537.02,-77.47 531.14,-74.47 525.62,-72 485.77,-54.18 437.93,-37.46 408.67,-27.73"/>
<polygon fill="red" stroke="red" stroke-width="0.5" points="410.08,-24.51 399.49,-24.71 407.9,-31.16 410.08,-24.51"/>
</g>
<!-- 497&#45;&gt;5386 -->
<g id="edge14" class="edge">
<title>497&#45;&gt;5386</title>
<path fill="none" stroke="red" stroke-width="0.54" d="M479.6,-150.37C494.32,-139.16 517.74,-121.35 535.08,-108.15"/>
<polygon fill="red" stroke="red" stroke-width="0.54" points="537.03,-111.07 542.87,-102.22 532.79,-105.49 537.03,-111.07"/>
</g>
<!-- 3860 -->
<g id="node11" class="node">
<title>3860</title>
<ellipse fill="white" stroke="black" cx="465.62" cy="-234" rx="18" ry="18"/>
</g>
<!-- 3860&#45;&gt;497 -->
<g id="edge16" class="edge">
<title>3860&#45;&gt;497</title>
<path fill="none" stroke="red" stroke-width="0.12" d="M465.62,-215.7C465.62,-207.98 465.62,-198.71 465.62,-190.11"/>
<polygon fill="red" stroke="red" stroke-width="0.12" points="469.13,-190.29 465.63,-180.29 462.13,-190.29 469.13,-190.29"/>
</g>
<!-- 5880&#45;&gt;3860 -->
<g id="edge17" class="edge">
<title>5880&#45;&gt;3860</title>
<path fill="none" stroke="green" stroke-width="0.85" d="M465.62,-287.7C465.62,-280.32 465.62,-271.52 465.62,-263.25"/>
<polygon fill="green" stroke="green" stroke-width="0.85" points="469.13,-263.39 465.63,-253.39 462.13,-263.39 469.13,-263.39"/>
</g>
</g>
</svg>
