<?xml version="1.0" encoding="UTF-8" standalone="no"?>
<!DOCTYPE svg PUBLIC "-//W3C//DTD SVG 1.1//EN"
 "http://www.w3.org/Graphics/SVG/1.1/DTD/svg11.dtd">
<!-- Generated by graphviz version 12.2.1 (0)
 -->
<!-- Pages: 1 -->
<svg width="584pt" height="188pt"
 viewBox="0.00 0.00 584.38 188.00" xmlns="http://www.w3.org/2000/svg" xmlns:xlink="http://www.w3.org/1999/xlink">
<g id="graph0" class="graph" transform="scale(1 1) rotate(0) translate(4 184)">
<polygon fill="white" stroke="none" points="-4,4 -4,-184 580.38,-184 580.38,4 -4,4"/>
<!-- actuator x -->
<g id="node1" class="node">
<title>actuator x</title>
<polygon fill="lightgray" stroke="black" points="63.25,-180 0,-180 0,-144 63.25,-144 63.25,-180"/>
<text text-anchor="middle" x="31.62" y="-159.07" font-family="Times,serif" font-size="9.00">actuator x</text>
</g>
<!-- actuator y -->
<g id="node2" class="node">
<title>actuator y</title>
<polygon fill="lightgray" stroke="black" points="144.25,-180 81,-180 81,-144 144.25,-144 144.25,-180"/>
<text text-anchor="middle" x="112.62" y="-159.07" font-family="Times,serif" font-size="9.00">actuator y</text>
</g>
<!-- actuator x&#45;&gt;actuator y -->
<!-- chip x (relative) -->
<g id="node3" class="node">
<title>chip x (relative)</title>
<polygon fill="lightgray" stroke="black" points="252.75,-180 162.5,-180 162.5,-144 252.75,-144 252.75,-180"/>
<text text-anchor="middle" x="207.62" y="-159.07" font-family="Times,serif" font-size="9.00">chip x (relative)</text>
</g>
<!-- actuator y&#45;&gt;chip x (relative) -->
<!-- chip y (relative) -->
<g id="node4" class="node">
<title>chip y (relative)</title>
<polygon fill="lightgray" stroke="black" points="360.75,-180 270.5,-180 270.5,-144 360.75,-144 360.75,-180"/>
<text text-anchor="middle" x="315.62" y="-159.07" font-family="Times,serif" font-size="9.00">chip y (relative)</text>
</g>
<!-- chip x (relative)&#45;&gt;chip y (relative) -->
<!-- dx -->
<g id="node7" class="node">
<title>dx</title>
<ellipse fill="lightblue" stroke="black" cx="256.62" cy="-18" rx="18" ry="18"/>
<text text-anchor="middle" x="256.62" y="-15.07" font-family="Times,serif" font-size="9.00">dx</text>
</g>
<!-- chip x (relative)&#45;&gt;dx -->
<g id="edge7" class="edge">
<title>chip x (relative)&#45;&gt;dx</title>
<path fill="none" stroke="green" stroke-width="2.16" d="M211.34,-143.66C215.45,-125.51 222.68,-96.34 231.62,-72 234.76,-63.48 238.74,-54.45 242.61,-46.32"/>
<polygon fill="green" stroke="green" stroke-width="2.16" points="245.72,-47.91 247,-37.39 239.44,-44.82 245.72,-47.91"/>
</g>
<!-- dy -->
<g id="node8" class="node">
<title>dy</title>
<ellipse fill="lightblue" stroke="black" cx="315.62" cy="-18" rx="18" ry="18"/>
<text text-anchor="middle" x="315.62" y="-15.07" font-family="Times,serif" font-size="9.00">dy</text>
</g>
<!-- chip x (relative)&#45;&gt;dy -->
<g id="edge8" class="edge">
<title>chip x (relative)&#45;&gt;dy</title>
<path fill="none" stroke="red" stroke-width="0.55" d="M220.87,-143.59C240.49,-117.79 277.26,-69.44 298.78,-41.15"/>
<polygon fill="red" stroke="red" stroke-width="0.55" points="301.41,-43.47 304.68,-33.39 295.84,-39.23 301.41,-43.47"/>
</g>
<!-- 4727 -->
<g id="node9" class="node">
<title>4727</title>
<ellipse fill="white" stroke="black" cx="367.62" cy="-90" rx="18" ry="18"/>
</g>
<!-- chip x (relative)&#45;&gt;4727 -->
<g id="edge13" class="edge">
<title>chip x (relative)&#45;&gt;4727</title>
<path fill="none" stroke="red" stroke-width="0.29" d="M247.59,-143.52C277.17,-130.58 316.59,-113.33 342.04,-102.19"/>
<polygon fill="red" stroke="red" stroke-width="0.29" points="343.22,-105.5 350.97,-98.28 340.41,-99.09 343.22,-105.5"/>
</g>
<!-- goal x (relative) -->
<g id="node5" class="node">
<title>goal x (relative)</title>
<polygon fill="lightgray" stroke="black" points="468.38,-180 378.88,-180 378.88,-144 468.38,-144 468.38,-180"/>
<text text-anchor="middle" x="423.62" y="-159.07" font-family="Times,serif" font-size="9.00">goal x (relative)</text>
</g>
<!-- chip y (relative)&#45;&gt;goal x (relative) -->
<!-- chip y (relative)&#45;&gt;dy -->
<g id="edge9" class="edge">
<title>chip y (relative)&#45;&gt;dy</title>
<path fill="none" stroke="green" stroke-width="1.25" d="M315.62,-143.59C315.62,-119.72 315.62,-76.53 315.62,-47.8"/>
<polygon fill="green" stroke="green" stroke-width="1.25" points="319.13,-48 315.63,-38 312.13,-48 319.13,-48"/>
</g>
<!-- goal y (relative) -->
<g id="node6" class="node">
<title>goal y (relative)</title>
<polygon fill="lightgray" stroke="black" points="576.38,-180 486.88,-180 486.88,-144 576.38,-144 576.38,-180"/>
<text text-anchor="middle" x="531.62" y="-159.07" font-family="Times,serif" font-size="9.00">goal y (relative)</text>
</g>
<!-- goal x (relative)&#45;&gt;goal y (relative) -->
<!-- goal x (relative)&#45;&gt;dx -->
<g id="edge10" class="edge">
<title>goal x (relative)&#45;&gt;dx</title>
<path fill="none" stroke="green" stroke-width="0.17" d="M392.42,-143.57C376.3,-133.96 356.69,-121.3 340.62,-108 315.53,-87.23 290.37,-59.42 274.22,-40.45"/>
<polygon fill="green" stroke="green" stroke-width="0.17" points="276.95,-38.26 267.83,-32.86 271.59,-42.76 276.95,-38.26"/>
</g>
<!-- goal y (relative)&#45;&gt;dx -->
<g id="edge11" class="edge">
<title>goal y (relative)&#45;&gt;dx</title>
<path fill="none" stroke="green" stroke-width="0.54" d="M508.91,-143.71C482.56,-124.25 437.24,-92.68 394.62,-72 349.86,-50.28 334.3,-55.74 288.62,-36 286.29,-34.99 283.89,-33.87 281.5,-32.71"/>
<polygon fill="green" stroke="green" stroke-width="0.54" points="283.22,-29.66 272.72,-28.19 280.01,-35.88 283.22,-29.66"/>
</g>
<!-- goal y (relative)&#45;&gt;4727 -->
<g id="edge14" class="edge">
<title>goal y (relative)&#45;&gt;4727</title>
<path fill="none" stroke="red" stroke-width="0.21" d="M490.66,-143.52C460.04,-130.45 419.13,-112.98 393.07,-101.86"/>
<polygon fill="red" stroke="red" stroke-width="0.21" points="394.73,-98.76 384.16,-98.06 391.98,-105.2 394.73,-98.76"/>
</g>
<!-- dx&#45;&gt;dy -->
<!-- 4727&#45;&gt;dy -->
<g id="edge12" class="edge">
<title>4727&#45;&gt;dy</title>
<path fill="none" stroke="red" stroke-width="0.17" d="M357.1,-74.83C349.91,-65.16 340.24,-52.14 332.05,-41.11"/>
<polygon fill="red" stroke="red" stroke-width="0.17" points="335.06,-39.29 326.28,-33.35 329.44,-43.46 335.06,-39.29"/>
</g>
</g>
</svg>
