<?xml version="1.0" encoding="UTF-8" standalone="no"?>
<!DOCTYPE svg PUBLIC "-//W3C//DTD SVG 1.1//EN"
 "http://www.w3.org/Graphics/SVG/1.1/DTD/svg11.dtd">
<!-- Generated by graphviz version 2.40.1 (20161225.0304)
 -->
<!-- Title: %3 Pages: 1 -->
<svg width="495pt" height="116pt"
 viewBox="0.00 0.00 494.60 116.00" xmlns="http://www.w3.org/2000/svg" xmlns:xlink="http://www.w3.org/1999/xlink">
<g id="graph0" class="graph" transform="scale(1 1) rotate(0) translate(4 112)">
<title>%3</title>
<polygon fill="#ffffff" stroke="transparent" points="-4,4 -4,-112 490.6034,-112 490.6034,4 -4,4"/>
<!-- actuator x -->
<g id="node1" class="node">
<title>actuator x</title>
<polygon fill="#d3d3d3" stroke="#000000" points="51.6011,-108 .1325,-108 .1325,-72 51.6011,-72 51.6011,-108"/>
<text text-anchor="middle" x="25.8668" y="-87.3" font-family="Times,serif" font-size="9.00" fill="#000000">actuator x</text>
</g>
<!-- actuator y -->
<g id="node2" class="node">
<title>actuator y</title>
<polygon fill="#d3d3d3" stroke="#000000" points="121.6011,-108 70.1325,-108 70.1325,-72 121.6011,-72 121.6011,-108"/>
<text text-anchor="middle" x="95.8668" y="-87.3" font-family="Times,serif" font-size="9.00" fill="#000000">actuator y</text>
</g>
<!-- actuator x&#45;&gt;actuator y -->
<!-- chip x (relative) -->
<g id="node3" class="node">
<title>chip x (relative)</title>
<polygon fill="#d3d3d3" stroke="#000000" points="213.8414,-108 139.8922,-108 139.8922,-72 213.8414,-72 213.8414,-108"/>
<text text-anchor="middle" x="176.8668" y="-87.3" font-family="Times,serif" font-size="9.00" fill="#000000">chip x (relative)</text>
</g>
<!-- actuator y&#45;&gt;chip x (relative) -->
<!-- chip y (relative) -->
<g id="node4" class="node">
<title>chip y (relative)</title>
<polygon fill="#d3d3d3" stroke="#000000" points="304.8414,-108 230.8922,-108 230.8922,-72 304.8414,-72 304.8414,-108"/>
<text text-anchor="middle" x="267.8668" y="-87.3" font-family="Times,serif" font-size="9.00" fill="#000000">chip y (relative)</text>
</g>
<!-- chip x (relative)&#45;&gt;chip y (relative) -->
<!-- dx -->
<g id="node7" class="node">
<title>dx</title>
<ellipse fill="#add8e6" stroke="#000000" cx="240.8668" cy="-18" rx="18" ry="18"/>
<text text-anchor="middle" x="240.8668" y="-15.3" font-family="Times,serif" font-size="9.00" fill="#000000">dx</text>
</g>
<!-- chip x (relative)&#45;&gt;dx -->
<g id="edge7" class="edge">
<title>chip x (relative)&#45;&gt;dx</title>
<path fill="none" stroke="#00ff00" stroke-width=".9295" d="M193.0167,-71.8314C201.8692,-61.8723 212.8869,-49.4774 222.1178,-39.0926"/>
<polygon fill="#00ff00" stroke="#00ff00" stroke-width=".9295" points="224.7353,-41.4161 228.7631,-31.6167 219.5034,-36.7655 224.7353,-41.4161"/>
</g>
<!-- dy -->
<g id="node8" class="node">
<title>dy</title>
<ellipse fill="#add8e6" stroke="#000000" cx="294.8668" cy="-18" rx="18" ry="18"/>
<text text-anchor="middle" x="294.8668" y="-15.3" font-family="Times,serif" font-size="9.00" fill="#000000">dy</text>
</g>
<!-- chip x (relative)&#45;&gt;dy -->
<g id="edge8" class="edge">
<title>chip x (relative)&#45;&gt;dy</title>
<path fill="none" stroke="#ff0000" stroke-width="1.6667" d="M208.2781,-71.9063C225.9264,-61.6045 248.2771,-48.3304 267.8668,-36 268.9664,-35.3079 270.087,-34.5944 271.2159,-33.869"/>
<polygon fill="#ff0000" stroke="#ff0000" stroke-width="1.6667" points="273.3739,-36.6395 279.8212,-28.2322 269.5382,-30.7839 273.3739,-36.6395"/>
</g>
<!-- goal x (relative) -->
<g id="node5" class="node">
<title>goal x (relative)</title>
<polygon fill="#d3d3d3" stroke="#000000" points="395.8414,-108 321.8922,-108 321.8922,-72 395.8414,-72 395.8414,-108"/>
<text text-anchor="middle" x="358.8668" y="-87.3" font-family="Times,serif" font-size="9.00" fill="#000000">goal x (relative)</text>
</g>
<!-- chip y (relative)&#45;&gt;goal x (relative) -->
<!-- chip y (relative)&#45;&gt;dx -->
<g id="edge9" class="edge">
<title>chip y (relative)&#45;&gt;dx</title>
<path fill="none" stroke="#00ff00" stroke-width="2.0333" d="M261.0536,-71.8314C257.933,-63.51 254.1748,-53.4881 250.7514,-44.3591"/>
<polygon fill="#00ff00" stroke="#00ff00" stroke-width="2.0333" points="254.0026,-43.0606 247.2142,-34.9263 247.4483,-45.5185 254.0026,-43.0606"/>
</g>
<!-- chip y (relative)&#45;&gt;dy -->
<g id="edge10" class="edge">
<title>chip y (relative)&#45;&gt;dy</title>
<path fill="none" stroke="#00ff00" stroke-width=".6661" d="M274.68,-71.8314C277.8006,-63.51 281.5588,-53.4881 284.9822,-44.3591"/>
<polygon fill="#00ff00" stroke="#00ff00" stroke-width=".6661" points="288.2853,-45.5185 288.5194,-34.9263 281.731,-43.0606 288.2853,-45.5185"/>
</g>
<!-- goal y (relative) -->
<g id="node6" class="node">
<title>goal y (relative)</title>
<polygon fill="#d3d3d3" stroke="#000000" points="486.8414,-108 412.8922,-108 412.8922,-72 486.8414,-72 486.8414,-108"/>
<text text-anchor="middle" x="449.8668" y="-87.3" font-family="Times,serif" font-size="9.00" fill="#000000">goal y (relative)</text>
</g>
<!-- goal x (relative)&#45;&gt;goal y (relative) -->
<!-- goal x (relative)&#45;&gt;dx -->
<g id="edge11" class="edge">
<title>goal x (relative)&#45;&gt;dx</title>
<path fill="none" stroke="#00ff00" stroke-width=".246" d="M327.4555,-71.9063C309.8072,-61.6045 287.4565,-48.3304 267.8668,-36 266.7672,-35.3079 265.6466,-34.5944 264.5177,-33.869"/>
<polygon fill="#00ff00" stroke="#00ff00" stroke-width=".246" points="266.1954,-30.7839 255.9124,-28.2322 262.3597,-36.6395 266.1954,-30.7839"/>
</g>
<!-- goal y (relative)&#45;&gt;dy -->
<g id="edge12" class="edge">
<title>goal y (relative)&#45;&gt;dy</title>
<path fill="none" stroke="#00ff00" stroke-width=".1896" d="M412.7404,-72.7542C384.2767,-59.5324 345.7324,-41.6279 320.5893,-29.9485"/>
<polygon fill="#00ff00" stroke="#00ff00" stroke-width=".1896" points="321.8836,-26.6906 311.3398,-25.652 318.9346,-33.0391 321.8836,-26.6906"/>
</g>
<!-- dx&#45;&gt;dy -->
</g>
</svg>
