<?xml version="1.0" encoding="UTF-8" standalone="no"?>
<!DOCTYPE svg PUBLIC "-//W3C//DTD SVG 1.1//EN"
 "http://www.w3.org/Graphics/SVG/1.1/DTD/svg11.dtd">
<!-- Generated by graphviz version 2.40.1 (20161225.0304)
 -->
<!-- Title: %3 Pages: 1 -->
<svg width="495pt" height="188pt"
 viewBox="0.00 0.00 494.60 188.00" xmlns="http://www.w3.org/2000/svg" xmlns:xlink="http://www.w3.org/1999/xlink">
<g id="graph0" class="graph" transform="scale(1 1) rotate(0) translate(4 184)">
<title>%3</title>
<polygon fill="#ffffff" stroke="transparent" points="-4,4 -4,-184 490.6034,-184 490.6034,4 -4,4"/>
<!-- actuator x -->
<g id="node1" class="node">
<title>actuator x</title>
<polygon fill="#d3d3d3" stroke="#000000" points="51.6011,-180 .1325,-180 .1325,-144 51.6011,-144 51.6011,-180"/>
<text text-anchor="middle" x="25.8668" y="-159.3" font-family="Times,serif" font-size="9.00" fill="#000000">actuator x</text>
</g>
<!-- actuator y -->
<g id="node2" class="node">
<title>actuator y</title>
<polygon fill="#d3d3d3" stroke="#000000" points="121.6011,-180 70.1325,-180 70.1325,-144 121.6011,-144 121.6011,-180"/>
<text text-anchor="middle" x="95.8668" y="-159.3" font-family="Times,serif" font-size="9.00" fill="#000000">actuator y</text>
</g>
<!-- actuator x&#45;&gt;actuator y -->
<!-- chip x (relative) -->
<g id="node3" class="node">
<title>chip x (relative)</title>
<polygon fill="#d3d3d3" stroke="#000000" points="213.8414,-180 139.8922,-180 139.8922,-144 213.8414,-144 213.8414,-180"/>
<text text-anchor="middle" x="176.8668" y="-159.3" font-family="Times,serif" font-size="9.00" fill="#000000">chip x (relative)</text>
</g>
<!-- actuator y&#45;&gt;chip x (relative) -->
<!-- chip y (relative) -->
<g id="node4" class="node">
<title>chip y (relative)</title>
<polygon fill="#d3d3d3" stroke="#000000" points="304.8414,-180 230.8922,-180 230.8922,-144 304.8414,-144 304.8414,-180"/>
<text text-anchor="middle" x="267.8668" y="-159.3" font-family="Times,serif" font-size="9.00" fill="#000000">chip y (relative)</text>
</g>
<!-- chip x (relative)&#45;&gt;chip y (relative) -->
<!-- dx -->
<g id="node7" class="node">
<title>dx</title>
<ellipse fill="#add8e6" stroke="#000000" cx="225.8668" cy="-18" rx="18" ry="18"/>
<text text-anchor="middle" x="225.8668" y="-15.3" font-family="Times,serif" font-size="9.00" fill="#000000">dx</text>
</g>
<!-- chip x (relative)&#45;&gt;dx -->
<g id="edge7" class="edge">
<title>chip x (relative)&#45;&gt;dx</title>
<path fill="none" stroke="#00ff00" stroke-width=".7312" d="M183.0727,-143.7623C191.5589,-118.8232 206.8485,-73.8906 216.6686,-45.0315"/>
<polygon fill="#00ff00" stroke="#00ff00" stroke-width=".7312" points="220.1083,-45.7877 220.0163,-35.1933 213.4814,-43.5327 220.1083,-45.7877"/>
</g>
<!-- dy -->
<g id="node8" class="node">
<title>dy</title>
<ellipse fill="#add8e6" stroke="#000000" cx="290.8668" cy="-18" rx="18" ry="18"/>
<text text-anchor="middle" x="290.8668" y="-15.3" font-family="Times,serif" font-size="9.00" fill="#000000">dy</text>
</g>
<!-- chip x (relative)&#45;&gt;dy -->
<g id="edge8" class="edge">
<title>chip x (relative)&#45;&gt;dy</title>
<path fill="none" stroke="#ff0000" stroke-width="1.2307" d="M191.305,-143.7623C212.1549,-117.4255 250.6571,-68.7912 273.1833,-40.3371"/>
<polygon fill="#ff0000" stroke="#ff0000" stroke-width="1.2307" points="276.1612,-42.2143 279.6241,-32.2014 270.6728,-37.8694 276.1612,-42.2143"/>
</g>
<!-- goal x (relative) -->
<g id="node5" class="node">
<title>goal x (relative)</title>
<polygon fill="#d3d3d3" stroke="#000000" points="395.8414,-180 321.8922,-180 321.8922,-144 395.8414,-144 395.8414,-180"/>
<text text-anchor="middle" x="358.8668" y="-159.3" font-family="Times,serif" font-size="9.00" fill="#000000">goal x (relative)</text>
</g>
<!-- chip y (relative)&#45;&gt;goal x (relative) -->
<!-- chip y (relative)&#45;&gt;dx -->
<g id="edge9" class="edge">
<title>chip y (relative)&#45;&gt;dx</title>
<path fill="none" stroke="#00ff00" stroke-width="1.4382" d="M262.5475,-143.7623C255.3129,-118.958 242.3097,-74.3758 233.8879,-45.5009"/>
<polygon fill="#00ff00" stroke="#00ff00" stroke-width="1.4382" points="237.1716,-44.2592 231.0116,-35.6392 230.4516,-46.2192 237.1716,-44.2592"/>
</g>
<!-- chip y (relative)&#45;&gt;dy -->
<g id="edge10" class="edge">
<title>chip y (relative)&#45;&gt;dy</title>
<path fill="none" stroke="#00ff00" stroke-width=".3657" d="M270.7798,-143.7623C274.72,-119.0928 281.785,-74.8598 286.3989,-45.9731"/>
<polygon fill="#00ff00" stroke="#00ff00" stroke-width=".3657" points="289.8564,-46.5165 287.9775,-36.0896 282.944,-45.4124 289.8564,-46.5165"/>
</g>
<!-- goal y (relative) -->
<g id="node6" class="node">
<title>goal y (relative)</title>
<polygon fill="#d3d3d3" stroke="#000000" points="486.8414,-180 412.8922,-180 412.8922,-144 486.8414,-144 486.8414,-180"/>
<text text-anchor="middle" x="449.8668" y="-159.3" font-family="Times,serif" font-size="9.00" fill="#000000">goal y (relative)</text>
</g>
<!-- goal x (relative)&#45;&gt;goal y (relative) -->
<!-- goal x (relative)&#45;&gt;dx -->
<g id="edge11" class="edge">
<title>goal x (relative)&#45;&gt;dx</title>
<path fill="none" stroke="#00ff00" stroke-width=".1488" d="M342.0223,-143.7623C317.338,-117.0365 271.4466,-67.3495 245.3453,-39.0895"/>
<polygon fill="#00ff00" stroke="#00ff00" stroke-width=".1488" points="247.5897,-36.361 238.2336,-31.3896 242.4474,-41.1105 247.5897,-36.361"/>
</g>
<!-- 919 -->
<g id="node9" class="node">
<title>919</title>
<ellipse fill="#ffffff" stroke="#000000" cx="412.8668" cy="-90" rx="18" ry="18"/>
</g>
<!-- goal x (relative)&#45;&gt;919 -->
<g id="edge14" class="edge">
<title>goal x (relative)&#45;&gt;919</title>
<path fill="none" stroke="#00ff00" stroke-width=".2432" d="M372.4933,-143.8314C379.5496,-134.4229 388.2363,-122.8407 395.7421,-112.8329"/>
<polygon fill="#00ff00" stroke="#00ff00" stroke-width=".2432" points="398.7634,-114.6378 401.9635,-104.5378 393.1634,-110.4378 398.7634,-114.6378"/>
</g>
<!-- goal y (relative)&#45;&gt;dy -->
<g id="edge12" class="edge">
<title>goal y (relative)&#45;&gt;dy</title>
<path fill="none" stroke="#00ff00" stroke-width=".1929" d="M427.6803,-143.8133C415.2386,-133.4824 399.5213,-120.2102 385.8668,-108 359.5207,-84.4407 330.1134,-56.2796 311.0944,-37.8094"/>
<polygon fill="#00ff00" stroke="#00ff00" stroke-width=".1929" points="313.466,-35.2336 303.8599,-30.7644 308.5823,-40.2486 313.466,-35.2336"/>
</g>
<!-- dx&#45;&gt;dy -->
<!-- 919&#45;&gt;dy -->
<g id="edge13" class="edge">
<title>919&#45;&gt;dy</title>
<path fill="none" stroke="#ff0000" stroke-width=".3945" d="M396.9174,-80.5873C376.0703,-68.2841 339.3621,-46.6202 315.0753,-32.287"/>
<polygon fill="#ff0000" stroke="#ff0000" stroke-width=".3945" points="316.8253,-29.2558 306.4343,-27.1874 313.2675,-35.2842 316.8253,-29.2558"/>
</g>
</g>
</svg>
