<?xml version="1.0" encoding="UTF-8" standalone="no"?>
<!DOCTYPE svg PUBLIC "-//W3C//DTD SVG 1.1//EN"
 "http://www.w3.org/Graphics/SVG/1.1/DTD/svg11.dtd">
<!-- Generated by graphviz version 2.40.1 (20161225.0304)
 -->
<!-- Title: %3 Pages: 1 -->
<svg width="511pt" height="332pt"
 viewBox="0.00 0.00 510.60 332.00" xmlns="http://www.w3.org/2000/svg" xmlns:xlink="http://www.w3.org/1999/xlink">
<g id="graph0" class="graph" transform="scale(1 1) rotate(0) translate(4 328)">
<title>%3</title>
<polygon fill="#ffffff" stroke="transparent" points="-4,4 -4,-328 506.6034,-328 506.6034,4 -4,4"/>
<!-- actuator x -->
<g id="node1" class="node">
<title>actuator x</title>
<polygon fill="#d3d3d3" stroke="#000000" points="51.6011,-324 .1325,-324 .1325,-288 51.6011,-288 51.6011,-324"/>
<text text-anchor="middle" x="25.8668" y="-303.3" font-family="Times,serif" font-size="9.00" fill="#000000">actuator x</text>
</g>
<!-- actuator y -->
<g id="node2" class="node">
<title>actuator y</title>
<polygon fill="#d3d3d3" stroke="#000000" points="121.6011,-324 70.1325,-324 70.1325,-288 121.6011,-288 121.6011,-324"/>
<text text-anchor="middle" x="95.8668" y="-303.3" font-family="Times,serif" font-size="9.00" fill="#000000">actuator y</text>
</g>
<!-- actuator x&#45;&gt;actuator y -->
<!-- chip x (relative) -->
<g id="node3" class="node">
<title>chip x (relative)</title>
<polygon fill="#d3d3d3" stroke="#000000" points="213.8414,-324 139.8922,-324 139.8922,-288 213.8414,-288 213.8414,-324"/>
<text text-anchor="middle" x="176.8668" y="-303.3" font-family="Times,serif" font-size="9.00" fill="#000000">chip x (relative)</text>
</g>
<!-- actuator y&#45;&gt;chip x (relative) -->
<!-- chip y (relative) -->
<g id="node4" class="node">
<title>chip y (relative)</title>
<polygon fill="#d3d3d3" stroke="#000000" points="304.8414,-324 230.8922,-324 230.8922,-288 304.8414,-288 304.8414,-324"/>
<text text-anchor="middle" x="267.8668" y="-303.3" font-family="Times,serif" font-size="9.00" fill="#000000">chip y (relative)</text>
</g>
<!-- chip x (relative)&#45;&gt;chip y (relative) -->
<!-- dx -->
<g id="node7" class="node">
<title>dx</title>
<ellipse fill="#add8e6" stroke="#000000" cx="246.8668" cy="-18" rx="18" ry="18"/>
<text text-anchor="middle" x="246.8668" y="-15.3" font-family="Times,serif" font-size="9.00" fill="#000000">dx</text>
</g>
<!-- chip x (relative)&#45;&gt;dx -->
<g id="edge7" class="edge">
<title>chip x (relative)&#45;&gt;dx</title>
<path fill="none" stroke="#00ff00" stroke-width=".3841" d="M170.8732,-287.9831C158.3421,-246.9306 133.4928,-144.4027 170.8668,-72 181.2655,-51.8552 203.0353,-37.5893 220.6208,-28.7995"/>
<polygon fill="#00ff00" stroke="#00ff00" stroke-width=".3841" points="222.2862,-31.8845 229.8613,-24.4771 219.3203,-25.5439 222.2862,-31.8845"/>
</g>
<!-- dy -->
<g id="node8" class="node">
<title>dy</title>
<ellipse fill="#add8e6" stroke="#000000" cx="311.8668" cy="-18" rx="18" ry="18"/>
<text text-anchor="middle" x="311.8668" y="-15.3" font-family="Times,serif" font-size="9.00" fill="#000000">dy</text>
</g>
<!-- chip x (relative)&#45;&gt;dy -->
<g id="edge8" class="edge">
<title>chip x (relative)&#45;&gt;dy</title>
<path fill="none" stroke="#00ff00" stroke-width="1.0589" d="M184.7551,-287.9507C202.0796,-248.4925 245.0094,-151.7039 283.8668,-72 288.5379,-62.4186 293.8785,-51.9979 298.6344,-42.8893"/>
<polygon fill="#00ff00" stroke="#00ff00" stroke-width="1.0589" points="301.772,-44.4425 303.3263,-33.9623 295.5757,-41.1858 301.772,-44.4425"/>
</g>
<!-- 1035 -->
<g id="node9" class="node">
<title>1035</title>
<ellipse fill="#ffffff" stroke="#000000" cx="306.8668" cy="-162" rx="18" ry="18"/>
</g>
<!-- chip x (relative)&#45;&gt;1035 -->
<g id="edge15" class="edge">
<title>chip x (relative)&#45;&gt;1035</title>
<path fill="none" stroke="#00ff00" stroke-width=".9276" d="M193.3314,-287.7623C217.4589,-261.0365 262.3151,-211.3495 287.8277,-183.0895"/>
<polygon fill="#00ff00" stroke="#00ff00" stroke-width=".9276" points="290.6758,-185.1577 294.7789,-175.3896 285.4799,-180.467 290.6758,-185.1577"/>
</g>
<!-- goal x (relative) -->
<g id="node5" class="node">
<title>goal x (relative)</title>
<polygon fill="#d3d3d3" stroke="#000000" points="411.8414,-324 337.8922,-324 337.8922,-288 411.8414,-288 411.8414,-324"/>
<text text-anchor="middle" x="374.8668" y="-303.3" font-family="Times,serif" font-size="9.00" fill="#000000">goal x (relative)</text>
</g>
<!-- chip y (relative)&#45;&gt;goal x (relative) -->
<!-- chip y (relative)&#45;&gt;dx -->
<g id="edge9" class="edge">
<title>chip y (relative)&#45;&gt;dx</title>
<path fill="none" stroke="#ff0000" stroke-width="1.1839" d="M258.7091,-287.5129C254.1655,-277.3118 249.1666,-264.2593 246.8668,-252 233.1305,-178.7793 239.0736,-90.3873 243.5507,-46.1306"/>
<polygon fill="#ff0000" stroke="#ff0000" stroke-width="1.1839" points="247.0384,-46.4311 244.6164,-36.1168 240.0777,-45.6902 247.0384,-46.4311"/>
</g>
<!-- chip y (relative)&#45;&gt;dy -->
<g id="edge10" class="edge">
<title>chip y (relative)&#45;&gt;dy</title>
<path fill="none" stroke="#00ff00" stroke-width=".6544" d="M268.1779,-287.9C268.9243,-257.833 271.441,-195.7747 279.8668,-144 285.5064,-109.3454 296.1087,-70.2799 303.5597,-44.9614"/>
<polygon fill="#00ff00" stroke="#00ff00" stroke-width=".6544" points="306.929,-45.9103 306.4387,-35.3268 300.222,-43.9061 306.929,-45.9103"/>
</g>
<!-- goal y (relative) -->
<g id="node6" class="node">
<title>goal y (relative)</title>
<polygon fill="#d3d3d3" stroke="#000000" points="502.8414,-324 428.8922,-324 428.8922,-288 502.8414,-288 502.8414,-324"/>
<text text-anchor="middle" x="465.8668" y="-303.3" font-family="Times,serif" font-size="9.00" fill="#000000">goal y (relative)</text>
</g>
<!-- goal x (relative)&#45;&gt;goal y (relative) -->
<!-- goal x (relative)&#45;&gt;dx -->
<g id="edge13" class="edge">
<title>goal x (relative)&#45;&gt;dx</title>
<path fill="none" stroke="#00ff00" stroke-width=".1432" d="M372.4238,-287.8042C367.8313,-257.071 356.2901,-193.4012 333.8668,-144 315.7826,-104.1583 284.9888,-63.4631 265.3042,-39.4815"/>
<polygon fill="#00ff00" stroke="#00ff00" stroke-width=".1432" points="267.933,-37.1688 258.8438,-31.7247 262.5542,-41.6486 267.933,-37.1688"/>
</g>
<!-- 497 -->
<g id="node11" class="node">
<title>497</title>
<ellipse fill="#ffffff" stroke="#000000" cx="420.8668" cy="-162" rx="18" ry="18"/>
</g>
<!-- goal x (relative)&#45;&gt;497 -->
<g id="edge17" class="edge">
<title>goal x (relative)&#45;&gt;497</title>
<path fill="none" stroke="#00ff00" stroke-width=".3524" d="M377.3259,-287.7005C380.1292,-269.2489 385.4459,-240.1235 393.8668,-216 397.3536,-206.0113 402.2883,-195.5044 406.9871,-186.4409"/>
<polygon fill="#00ff00" stroke="#00ff00" stroke-width=".3524" points="410.0863,-188.0674 411.7276,-177.6005 403.9173,-184.7593 410.0863,-188.0674"/>
</g>
<!-- 931 -->
<g id="node12" class="node">
<title>931</title>
<ellipse fill="#ffffff" stroke="#000000" cx="420.8668" cy="-234" rx="18" ry="18"/>
</g>
<!-- goal x (relative)&#45;&gt;931 -->
<g id="edge19" class="edge">
<title>goal x (relative)&#45;&gt;931</title>
<path fill="none" stroke="#ff0000" stroke-width="1.1431" d="M386.4745,-287.8314C392.2617,-278.7731 399.3363,-267.6999 405.5611,-257.9568"/>
<polygon fill="#ff0000" stroke="#ff0000" stroke-width="1.1431" points="408.543,-259.7903 410.9775,-249.479 402.6441,-256.0216 408.543,-259.7903"/>
</g>
<!-- goal y (relative)&#45;&gt;dy -->
<g id="edge11" class="edge">
<title>goal y (relative)&#45;&gt;dy</title>
<path fill="none" stroke="#00ff00" stroke-width=".1481" d="M468.5271,-287.9072C472.2324,-256.214 475.6724,-189.6872 447.8668,-144 432.8708,-119.3602 415.7424,-126.8004 393.8668,-108 369.5686,-87.1176 345.298,-59.4136 329.54,-40.286"/>
<polygon fill="#00ff00" stroke="#00ff00" stroke-width=".1481" points="332.1567,-37.9564 323.131,-32.4077 326.7265,-42.3738 332.1567,-37.9564"/>
</g>
<!-- dx&#45;&gt;dy -->
<!-- 1035&#45;&gt;dy -->
<g id="edge12" class="edge">
<title>1035&#45;&gt;dy</title>
<path fill="none" stroke="#00ff00" stroke-width=".346" d="M309.366,-144.0415C310.6991,-133.5554 312.1991,-120.0554 312.8668,-108 314.0046,-87.4565 313.7074,-64.2364 313.1504,-46.5279"/>
<polygon fill="#00ff00" stroke="#00ff00" stroke-width=".346" points="316.6393,-46.1543 312.7805,-36.2872 309.6438,-46.4071 316.6393,-46.1543"/>
</g>
<!-- 1754 -->
<g id="node10" class="node">
<title>1754</title>
<ellipse fill="#ffffff" stroke="#000000" cx="420.8668" cy="-90" rx="18" ry="18"/>
</g>
<!-- 1754&#45;&gt;dy -->
<g id="edge14" class="edge">
<title>1754&#45;&gt;dy</title>
<path fill="none" stroke="#00ff00" stroke-width=".3139" d="M405.7108,-79.9887C387.4892,-67.9524 356.7033,-47.6168 335.3861,-33.5357"/>
<polygon fill="#00ff00" stroke="#00ff00" stroke-width=".3139" points="337.1671,-30.5175 326.8941,-27.9263 333.309,-36.3583 337.1671,-30.5175"/>
</g>
<!-- 497&#45;&gt;1754 -->
<g id="edge16" class="edge">
<title>497&#45;&gt;1754</title>
<path fill="none" stroke="#00ff00" stroke-width=".4381" d="M420.8668,-143.8314C420.8668,-136.131 420.8668,-126.9743 420.8668,-118.4166"/>
<polygon fill="#00ff00" stroke="#00ff00" stroke-width=".4381" points="424.3669,-118.4132 420.8668,-108.4133 417.3669,-118.4133 424.3669,-118.4132"/>
</g>
<!-- 931&#45;&gt;497 -->
<g id="edge18" class="edge">
<title>931&#45;&gt;497</title>
<path fill="none" stroke="#ff0000" stroke-width=".5976" d="M420.8668,-215.8314C420.8668,-208.131 420.8668,-198.9743 420.8668,-190.4166"/>
<polygon fill="#ff0000" stroke="#ff0000" stroke-width=".5976" points="424.3669,-190.4132 420.8668,-180.4133 417.3669,-190.4133 424.3669,-190.4132"/>
</g>
</g>
</svg>
