<?xml version="1.0" encoding="UTF-8" standalone="no"?>
<!DOCTYPE svg PUBLIC "-//W3C//DTD SVG 1.1//EN"
 "http://www.w3.org/Graphics/SVG/1.1/DTD/svg11.dtd">
<!-- Generated by graphviz version 2.40.1 (20161225.0304)
 -->
<!-- Title: %3 Pages: 1 -->
<svg width="495pt" height="188pt"
 viewBox="0.00 0.00 494.60 188.00" xmlns="http://www.w3.org/2000/svg" xmlns:xlink="http://www.w3.org/1999/xlink">
<g id="graph0" class="graph" transform="scale(1 1) rotate(0) translate(4 184)">
<title>%3</title>
<polygon fill="#ffffff" stroke="transparent" points="-4,4 -4,-184 490.6034,-184 490.6034,4 -4,4"/>
<!-- actuator x -->
<g id="node1" class="node">
<title>actuator x</title>
<polygon fill="#d3d3d3" stroke="#000000" points="51.6011,-180 .1325,-180 .1325,-144 51.6011,-144 51.6011,-180"/>
<text text-anchor="middle" x="25.8668" y="-159.3" font-family="Times,serif" font-size="9.00" fill="#000000">actuator x</text>
</g>
<!-- actuator y -->
<g id="node2" class="node">
<title>actuator y</title>
<polygon fill="#d3d3d3" stroke="#000000" points="121.6011,-180 70.1325,-180 70.1325,-144 121.6011,-144 121.6011,-180"/>
<text text-anchor="middle" x="95.8668" y="-159.3" font-family="Times,serif" font-size="9.00" fill="#000000">actuator y</text>
</g>
<!-- actuator x&#45;&gt;actuator y -->
<!-- chip x (relative) -->
<g id="node3" class="node">
<title>chip x (relative)</title>
<polygon fill="#d3d3d3" stroke="#000000" points="213.8414,-180 139.8922,-180 139.8922,-144 213.8414,-144 213.8414,-180"/>
<text text-anchor="middle" x="176.8668" y="-159.3" font-family="Times,serif" font-size="9.00" fill="#000000">chip x (relative)</text>
</g>
<!-- actuator y&#45;&gt;chip x (relative) -->
<!-- 765 -->
<g id="node9" class="node">
<title>765</title>
<ellipse fill="#ffffff" stroke="#000000" cx="298.8668" cy="-90" rx="18" ry="18"/>
</g>
<!-- actuator y&#45;&gt;765 -->
<g id="edge14" class="edge">
<title>actuator y&#45;&gt;765</title>
<path fill="none" stroke="#00ff00" stroke-width=".4649" d="M121.6365,-148.1487C124.713,-146.6739 127.8371,-145.256 130.8668,-144 179.1317,-123.9908 237.6485,-106.676 271.3379,-97.3457"/>
<polygon fill="#00ff00" stroke="#00ff00" stroke-width=".4649" points="272.6375,-100.6189 281.3592,-94.6037 270.79,-93.867 272.6375,-100.6189"/>
</g>
<!-- chip y (relative) -->
<g id="node4" class="node">
<title>chip y (relative)</title>
<polygon fill="#d3d3d3" stroke="#000000" points="304.8414,-180 230.8922,-180 230.8922,-144 304.8414,-144 304.8414,-180"/>
<text text-anchor="middle" x="267.8668" y="-159.3" font-family="Times,serif" font-size="9.00" fill="#000000">chip y (relative)</text>
</g>
<!-- chip x (relative)&#45;&gt;chip y (relative) -->
<!-- dx -->
<g id="node7" class="node">
<title>dx</title>
<ellipse fill="#add8e6" stroke="#000000" cx="252.8668" cy="-18" rx="18" ry="18"/>
<text text-anchor="middle" x="252.8668" y="-15.3" font-family="Times,serif" font-size="9.00" fill="#000000">dx</text>
</g>
<!-- chip x (relative)&#45;&gt;dx -->
<g id="edge7" class="edge">
<title>chip x (relative)&#45;&gt;dx</title>
<path fill="none" stroke="#00ff00" stroke-width=".6225" d="M186.4923,-143.7623C199.9135,-118.3325 224.3064,-72.1145 239.4893,-43.3468"/>
<polygon fill="#00ff00" stroke="#00ff00" stroke-width=".6225" points="242.6838,-44.7926 244.2561,-34.3151 236.4931,-41.5252 242.6838,-44.7926"/>
</g>
<!-- dy -->
<g id="node8" class="node">
<title>dy</title>
<ellipse fill="#add8e6" stroke="#000000" cx="363.8668" cy="-18" rx="18" ry="18"/>
<text text-anchor="middle" x="363.8668" y="-15.3" font-family="Times,serif" font-size="9.00" fill="#000000">dy</text>
</g>
<!-- chip x (relative)&#45;&gt;dy -->
<g id="edge8" class="edge">
<title>chip x (relative)&#45;&gt;dy</title>
<path fill="none" stroke="#00ff00" stroke-width="1.9203" d="M213.6488,-147.123C216.4238,-146.0509 219.1862,-144.9994 221.8668,-144 267.6981,-126.9123 290.1531,-141.422 325.8668,-108 343.397,-91.5946 353.1593,-65.8133 358.3842,-46.0413"/>
<polygon fill="#00ff00" stroke="#00ff00" stroke-width="1.9203" points="361.8511,-46.593 360.7804,-36.0524 355.0442,-44.9601 361.8511,-46.593"/>
</g>
<!-- goal x (relative) -->
<g id="node5" class="node">
<title>goal x (relative)</title>
<polygon fill="#d3d3d3" stroke="#000000" points="395.8414,-180 321.8922,-180 321.8922,-144 395.8414,-144 395.8414,-180"/>
<text text-anchor="middle" x="358.8668" y="-159.3" font-family="Times,serif" font-size="9.00" fill="#000000">goal x (relative)</text>
</g>
<!-- chip y (relative)&#45;&gt;goal x (relative) -->
<!-- chip y (relative)&#45;&gt;dx -->
<g id="edge9" class="edge">
<title>chip y (relative)&#45;&gt;dx</title>
<path fill="none" stroke="#ff0000" stroke-width="1.1966" d="M255.2546,-143.9415C248.9901,-133.866 242.0856,-120.7967 238.8668,-108 233.554,-86.8781 238.0106,-62.432 243.2622,-44.353"/>
<polygon fill="#ff0000" stroke="#ff0000" stroke-width="1.1966" points="246.6139,-45.3618 246.2911,-34.7719 239.9395,-43.2518 246.6139,-45.3618"/>
</g>
<!-- chip y (relative)&#45;&gt;dy -->
<g id="edge10" class="edge">
<title>chip y (relative)&#45;&gt;dy</title>
<path fill="none" stroke="#00ff00" stroke-width=".5361" d="M304.8352,-144.568C327.1091,-133.2527 352.3867,-118.68 358.8668,-108 370.1159,-89.4602 370.6516,-64.6207 368.7763,-45.7341"/>
<polygon fill="#00ff00" stroke="#00ff00" stroke-width=".5361" points="372.2295,-45.1432 367.498,-35.6636 365.2852,-46.0247 372.2295,-45.1432"/>
</g>
<!-- goal y (relative) -->
<g id="node6" class="node">
<title>goal y (relative)</title>
<polygon fill="#d3d3d3" stroke="#000000" points="486.8414,-180 412.8922,-180 412.8922,-144 486.8414,-144 486.8414,-180"/>
<text text-anchor="middle" x="449.8668" y="-159.3" font-family="Times,serif" font-size="9.00" fill="#000000">goal y (relative)</text>
</g>
<!-- goal x (relative)&#45;&gt;goal y (relative) -->
<!-- goal x (relative)&#45;&gt;dx -->
<g id="edge11" class="edge">
<title>goal x (relative)&#45;&gt;dx</title>
<path fill="none" stroke="#00ff00" stroke-width=".1519" d="M322.1071,-147.4791C304.3306,-138.6371 284.219,-125.6102 271.8668,-108 259.2361,-89.9927 254.6967,-65.3098 253.1982,-46.3472"/>
<polygon fill="#00ff00" stroke="#00ff00" stroke-width=".1519" points="256.6845,-46.0003 252.6377,-36.2088 249.6952,-46.3868 256.6845,-46.0003"/>
</g>
<!-- goal y (relative)&#45;&gt;dy -->
<g id="edge12" class="edge">
<title>goal y (relative)&#45;&gt;dy</title>
<path fill="none" stroke="#00ff00" stroke-width=".2479" d="M439.1941,-143.6766C428.5523,-125.4539 411.6995,-96.7234 396.8668,-72 391.0166,-62.2488 384.5028,-51.5557 378.8182,-42.2762"/>
<polygon fill="#00ff00" stroke="#00ff00" stroke-width=".2479" points="381.6794,-40.247 373.4653,-33.5552 375.7136,-43.9088 381.6794,-40.247"/>
</g>
<!-- dx&#45;&gt;dy -->
<!-- 765&#45;&gt;dx -->
<g id="edge13" class="edge">
<title>765&#45;&gt;dx</title>
<path fill="none" stroke="#ff0000" stroke-width=".1771" d="M289.1114,-74.7307C283.0127,-65.1848 275.0293,-52.6891 268.1078,-41.8554"/>
<polygon fill="#ff0000" stroke="#ff0000" stroke-width=".1771" points="270.9415,-39.7899 262.6082,-33.2473 265.0427,-43.5587 270.9415,-39.7899"/>
</g>
</g>
</svg>
